<?xml version="1.0" ?><svg data-name="Layer 1" id="Layer_1" viewBox="0 0 140 140" xmlns="http://www.w3.org/2000/svg"><defs><style>.cls-1{fill:#d77165;}.cls-2{fill:#525354;}.cls-3{fill:#fff;}</style></defs><title/><circle class="cls-1" cx="70" cy="70" r="64"/><rect class="cls-2" height="98" rx="1" ry="1" width="64" x="39" y="22"/><rect class="cls-3" height="98" rx="1" ry="1" width="64" x="38" y="21"/><rect class="cls-2" height="4" rx="1" ry="1" width="32" x="53.71" y="30.79"/><rect class="cls-2" height="4" rx="1" ry="1" width="46" x="46.71" y="43.48"/><rect class="cls-2" height="4" rx="1" ry="1" width="46" x="47" y="55.18"/><rect class="cls-2" height="4" rx="1" ry="1" width="46" x="47" y="66.89"/><rect class="cls-2" height="4" rx="1" ry="1" width="46" x="47" y="78.59"/><rect class="cls-2" height="4" rx="1" ry="1" width="46" x="47" y="90.3"/><path class="cls-2" d="M100,21h-.58c0-1.82-1.19-2.65-2.24-2.65S95,19.18,95,21v9.82a1.55,1.55,0,1,0,3.1,0V21.9a.2.2,0,0,1,.2-.2h.2a.19.19,0,0,1,.19.2v8.92A2.09,2.09,0,0,1,96.5,33,2.19,2.19,0,0,1,95,32.45a2.14,2.14,0,0,1-.67-1.63V21c0-1.63,1-3.24,2.81-3.24S100,19.37,100,21Z"/></svg>